HIERARCHY
ROOT root
{
  OFFSET 0 93.2929 0
  CHANNELS 6 Xposition Yposition Zposition Zrotation Xrotation Yrotation
  JOINT torso_1
  {
    OFFSET 0 5.07867 -1.15138
    CHANNELS 6 Xposition Yposition Zposition Zrotation Xrotation Yrotation
    JOINT torso_2
    {
      OFFSET 0 5.61661 1.07143
      CHANNELS 6 Xposition Yposition Zposition Zrotation Xrotation Yrotation
      JOINT torso_3
      {
        OFFSET -1.02604e-17 5.98978 0.11501
        CHANNELS 6 Xposition Yposition Zposition Zrotation Xrotation Yrotation
        JOINT torso_4
        {
          OFFSET -1.10457e-17 6.50583 -0.443523
          CHANNELS 6 Xposition Yposition Zposition Zrotation Xrotation Yrotation
          JOINT torso_5
          {
            OFFSET -1.97295e-17 7.60548 -1.50593
            CHANNELS 6 Xposition Yposition Zposition Zrotation Xrotation Yrotation
            JOINT torso_6
            {
              OFFSET -2.53307e-17 9.49737 -0.914492
              CHANNELS 6 Xposition Yposition Zposition Zrotation Xrotation Yrotation
              JOINT torso_7
              {
                OFFSET -2.90401e-17 10.5513 1.57691
                CHANNELS 6 Xposition Yposition Zposition Zrotation Xrotation Yrotation
                JOINT neck_1
                {
                  OFFSET -1.29193e-17 4.78644 0.715339
                  CHANNELS 6 Xposition Yposition Zposition Zrotation Xrotation Yrotation
                  JOINT neck_2
                  {
                    OFFSET -1.8116e-17 4.82109 0.421791
                    CHANNELS 6 Xposition Yposition Zposition Zrotation Xrotation Yrotation
                    JOINT head
                    {
                      OFFSET -2.00958e-17 4.83041 0.765062
                      CHANNELS 6 Xposition Yposition Zposition Zrotation Xrotation Yrotation
                      End Site
                      {
                        OFFSET 0 0.1 0
                      }
                    }
                  }
                }
                JOINT l_shoulder
                {
                  OFFSET 1.23299 -7.60731 7.53374
                  CHANNELS 6 Xposition Yposition Zposition Zrotation Xrotation Yrotation
                  JOINT l_up_arm
                  {
                    OFFSET 12.9547 3.2495 -3.26872
                    CHANNELS 6 Xposition Yposition Zposition Zrotation Xrotation Yrotation
                    JOINT l_low_arm
                    {
                      OFFSET 29.2081 0.0598081 0.137039
                      CHANNELS 6 Xposition Yposition Zposition Zrotation Xrotation Yrotation
                      JOINT l_hand
                      {
                        OFFSET 24.234 0.0496219 0.113701
                        CHANNELS 6 Xposition Yposition Zposition Zrotation Xrotation Yrotation
                        End Site
                        {
                          OFFSET 0.1 0 0
                        }
                      }
                    }
                  }
                }
                JOINT r_shoulder
                {
                  OFFSET -1.23299 -7.60729 7.53365
                  CHANNELS 6 Xposition Yposition Zposition Zrotation Xrotation Yrotation
                  JOINT r_up_arm
                  {
                    OFFSET -12.9547 3.2495 -3.26872
                    CHANNELS 6 Xposition Yposition Zposition Zrotation Xrotation Yrotation
                    JOINT r_low_arm
                    {
                      OFFSET -29.2081 0.0598081 0.137039
                      CHANNELS 6 Xposition Yposition Zposition Zrotation Xrotation Yrotation
                      JOINT r_hand
                      {
                        OFFSET -24.234 0.0496218 0.113702
                        CHANNELS 6 Xposition Yposition Zposition Zrotation Xrotation Yrotation
                        End Site
                        {
                          OFFSET -0.1 0 0
                        }
                      }
                    }
                  }
                }
              }
            }
          }
        }
      }
    }
  }
  JOINT l_up_leg
  {
    OFFSET 9.23673 -4.20556 2.0327
    CHANNELS 6 Xposition Yposition Zposition Zrotation Xrotation Yrotation
    JOINT l_low_leg
    {
      OFFSET -0.852353 -38.7721 -0.655187
      CHANNELS 6 Xposition Yposition Zposition Zrotation Xrotation Yrotation
      JOINT l_foot
      {
        OFFSET -2.32622 -40.4017 -6.04875
        CHANNELS 6 Xposition Yposition Zposition Zrotation Xrotation Yrotation
        JOINT l_toes
        {
          OFFSET 0.779096 -9.8844 12.4959
          CHANNELS 6 Xposition Yposition Zposition Zrotation Xrotation Yrotation
          End Site
          {
            OFFSET 0 0 0.1
          }
        }
      }
    }
  }
  JOINT r_up_leg
  {
    OFFSET -9.23673 -4.20556 2.0327
    CHANNELS 6 Xposition Yposition Zposition Zrotation Xrotation Yrotation
    JOINT r_low_leg
    {
      OFFSET 0.852353 -38.7721 -0.655187
      CHANNELS 6 Xposition Yposition Zposition Zrotation Xrotation Yrotation
      JOINT r_foot
      {
        OFFSET 2.32622 -40.4017 -6.04875
        CHANNELS 6 Xposition Yposition Zposition Zrotation Xrotation Yrotation
        JOINT r_toes
        {
          OFFSET -0.779096 -9.8844 12.4959
          CHANNELS 6 Xposition Yposition Zposition Zrotation Xrotation Yrotation
          End Site
          {
            OFFSET 0 0 0.1
          }
        }
      }
    }
  }
}
MOTION
Frames: 5
Frame Time: 0.016667
0.486111 93.6532 -14.9128 -13.6235 3.44401 67.5036 0 5.07867 -1.15138 0.123786 8.11933 -0.108445 0 5.61661 1.07143 0.0730402 6.41872 -0.054605 -1.02604e-17 5.98978 0.11501 0.0636011 5.12816 -0.101046 -1.10457e-17 6.50583 -0.443523 0.050327 2.7217 -0.143758 -1.97295e-17 7.60548 -1.50593 0.0448429 0.883374 -0.158646 -2.53307e-17 9.49737 -0.914492 0.0234755 -0.152319 -0.0572187 -2.90401e-17 10.5513 1.57691 -0.00803226 0.135238 0.00250042 -1.29193e-17 4.78644 0.715339 -0.215775 -2.64118 0.0349324 -1.8116e-17 4.82109 0.421791 -2.47187 -8.92307 -0.288068 -2.00958e-17 4.83041 0.765062 -5.39946 -6.32389 1.29211 1.23299 -7.60731 7.53374 9.98101 3.38596 -4.74191 12.9547 3.2495 -3.26872 -52.2348 57.0978 -44.4296 29.2081 0.0598081 0.137039 8.95248 -3.98007 -48.4612 24.234 0.0496219 0.113701 3.47035 -16.1214 0.205459 -1.23299 -7.60729 7.53365 -8.43775 3.40297 5.15522 -12.9547 3.2495 -3.26872 48.6545 55.4055 52.8725 -29.2081 0.0598081 0.137039 -7.8147 -2.86907 40.8637 -24.234 0.0496218 0.113702 -0.589247 -48.8025 1.48757 9.23673 -4.20556 2.0327 12.7426 -30.9883 -0.343836 -0.852353 -38.7721 -0.655187 -6.06557 21.785 0.782668 -2.32622 -40.4017 -6.04875 -6.9227 2.32625 17.505 0.779096 -9.8844 12.4959 5.73225e-16 -7.74719e-16 -7.99552e-18 -9.23673 -4.20556 2.0327 5.60681 -32.5344 30.9953 0.852353 -38.7721 -0.655187 5.49104 19.8744 -0.611803 2.32622 -40.4017 -6.04875 4.97935 5.17994 -16.5204 -0.779096 -9.8844 12.4959 2.17088e-15 -6.86766e-16 -1.28623e-14 
0.333511 93.5002 -14.8929 -14.1625 3.67801 67.5783 0 5.07867 -1.15138 0.021798 8.25118 -0.124956 0 5.61661 1.07143 -0.0121694 6.49229 -0.0907645 -1.02604e-17 5.98978 0.11501 -0.00699049 5.13804 -0.142586 -1.10457e-17 6.50583 -0.443523 -0.00475755 2.62045 -0.193813 -1.97295e-17 7.60548 -1.50593 -0.000100475 0.729469 -0.197161 -2.53307e-17 9.49737 -0.914492 -0.00456064 -0.35252 -0.0802594 -2.90401e-17 10.5513 1.57691 -0.00856785 0.136922 0.00220425 -1.29193e-17 4.78644 0.715339 -0.297604 -3.39462 -0.145189 -1.8116e-17 4.82109 0.421791 -2.5967 -9.07845 -0.386321 -2.00958e-17 4.83041 0.765062 -5.50969 -6.30474 1.30095 1.23299 -7.60731 7.53374 9.7437 3.59349 -5.07087 12.9547 3.2495 -3.26872 -53.0772 56.1639 -43.551 29.2081 0.0598081 0.137039 8.91122 -3.93431 -48.1673 24.234 0.0496219 0.113701 3.56802 -14.8885 0.199434 -1.23299 -7.60729 7.53365 -8.02297 3.5778 5.42475 -12.9547 3.2495 -3.26872 50.4188 54.3877 51.7417 -29.2081 0.0598081 0.137039 -7.73321 -2.80002 40.3532 -24.234 0.0496218 0.113702 -0.497691 -48.4578 1.72301 9.23673 -4.20556 2.0327 12.8823 -31.9606 -0.495225 -0.852353 -38.7721 -0.655187 -6.23074 22.3255 0.835216 -2.32622 -40.4017 -6.04875 -6.83406 1.98199 17.4636 0.779096 -9.8844 12.4959 4.52517e-16 -7.76297e-16 -6.41715e-18 -9.23673 -4.20556 2.0327 5.74884 -33.4118 31.1463 0.852353 -38.7721 -0.655187 5.62705 20.3308 -0.650558 2.32622 -40.4017 -6.04875 4.83893 4.64297 -16.5241 -0.779096 -9.8844 12.4959 1.80219e-15 -6.71473e-16 -1.2847e-14 
0.215722 93.3594 -14.8846 -14.7161 3.88034 67.6358 0 5.07867 -1.15138 -0.0628084 8.32857 -0.13998 0 5.61661 1.07143 -0.082472 6.53547 -0.122189 -1.02604e-17 5.98978 0.11501 -0.066486 5.14203 -0.17952 -1.10457e-17 6.50583 -0.443523 -0.0524813 2.55688 -0.23892 -1.97295e-17 7.60548 -1.50593 -0.0413308 0.634666 -0.231741 -2.53307e-17 9.49737 -0.914492 -0.0325598 -0.479533 -0.100094 -2.90401e-17 10.5513 1.57691 -0.00906643 0.13747 0.00188548 -1.29193e-17 4.78644 0.715339 -0.385402 -4.1537 -0.310893 -1.8116e-17 4.82109 0.421791 -2.7459 -9.2782 -0.477293 -2.00958e-17 4.83041 0.765062 -5.62621 -6.34519 1.26448 1.23299 -7.60731 7.53374 9.49659 3.74796 -5.37589 12.9547 3.2495 -3.26872 -53.7045 55.2031 -42.9795 29.2081 0.0598081 0.137039 8.8557 -3.87349 -47.7745 24.234 0.0496219 0.113701 3.65597 -13.8248 0.1532 -1.23299 -7.60729 7.53365 -7.61435 3.69355 5.68397 -12.9547 3.2495 -3.26872 51.9265 53.3054 50.7962 -29.2081 0.0598081 0.137039 -7.67333 -2.75006 39.9804 -24.234 0.0496218 0.113702 -0.395326 -47.8472 1.92651 9.23673 -4.20556 2.0327 13.0394 -32.9059 -0.665636 -0.852353 -38.7721 -0.655187 -6.39021 22.8437 0.887378 -2.32622 -40.4017 -6.04875 -6.73008 1.64379 17.4191 0.779096 -9.8844 12.4959 1.09544e-15 -7.46058e-16 -3.66567e-17 -9.23673 -4.20556 2.0327 5.90503 -34.2592 31.2428 0.852353 -38.7721 -0.655187 5.75016 20.7418 -0.686551 2.32622 -40.4017 -6.04875 4.71796 4.1686 -16.53 -0.779096 -9.8844 12.4959 -6.75744e-17 -5.8803e-16 -1.27636e-14 
0.137602 93.2418 -14.8847 -15.1683 4.03153 67.6561 0 5.07867 -1.15138 -0.142191 8.37255 -0.149024 0 5.61661 1.07143 -0.149528 6.56901 -0.145273 -1.02604e-17 5.98978 0.11501 -0.124362 5.1629 -0.208503 -1.10457e-17 6.50583 -0.443523 -0.0999711 2.56048 -0.2754 -1.97295e-17 7.60548 -1.50593 -0.0822937 0.623694 -0.257722 -2.53307e-17 9.49737 -0.914492 -0.0592687 -0.506157 -0.112479 -2.90401e-17 10.5513 1.57691 -0.00951653 0.136509 0.00144816 -1.29193e-17 4.78644 0.715339 -0.482948 -4.93916 -0.494122 -1.8116e-17 4.82109 0.421791 -2.89672 -9.5641 -0.575891 -2.00958e-17 4.83041 0.765062 -5.73648 -6.43377 1.22097 1.23299 -7.60731 7.53374 9.18567 3.83618 -5.68414 12.9547 3.2495 -3.26872 -54.0766 54.1352 -42.7129 29.2081 0.0598081 0.137039 8.78545 -3.79771 -47.2816 24.234 0.0496219 0.113701 3.67931 -12.904 0.079159 -1.23299 -7.60729 7.53365 -7.18085 3.73526 5.93637 -12.9547 3.2495 -3.26872 53.0842 52.1078 50.136 -29.2081 0.0598081 0.137039 -7.62176 -2.70756 39.6609 -24.234 0.0496218 0.113702 -0.314489 -47.1089 2.07424 9.23673 -4.20556 2.0327 13.1767 -33.6775 -0.851 -0.852353 -38.7721 -0.655187 -6.52914 23.292 0.933956 -2.32622 -40.4017 -6.04875 -6.62813 1.35091 17.3766 0.779096 -9.8844 12.4959 3.76559e-15 -6.3338e-16 -1.49335e-16 -9.23673 -4.20556 2.0327 6.04218 -34.95 31.2691 0.852353 -38.7721 -0.655187 5.85446 21.0883 -0.717716 2.32622 -40.4017 -6.04875 4.62793 3.78189 -16.5376 -0.779096 -9.8844 12.4959 1.98785e-16 -5.96354e-16 -1.27719e-14 
0.0837602 93.1353 -14.8822 -15.3982 4.15387 67.6221 0 5.07867 -1.15138 -0.249973 8.42987 -0.144817 0 5.61661 1.07143 -0.24437 6.62568 -0.156494 -1.02604e-17 5.98978 0.11501 -0.205101 5.22164 -0.225734 -1.10457e-17 6.50583 -0.443523 -0.165256 2.63306 -0.299021 -1.97295e-17 7.60548 -1.50593 -0.131497 0.681433 -0.268154 -2.53307e-17 9.49737 -0.914492 -0.0823099 -0.452506 -0.110979 -2.90401e-17 10.5513 1.57691 -0.00982782 0.134474 0.000827605 -1.29193e-17 4.78644 0.715339 -0.595568 -5.74695 -0.743583 -1.8116e-17 4.82109 0.421791 -2.99357 -9.93813 -0.703289 -2.00958e-17 4.83041 0.765062 -5.80239 -6.53157 1.1826 1.23299 -7.60731 7.53374 8.81458 3.87774 -6.01262 12.9547 3.2495 -3.26872 -54.1054 52.9808 -42.7245 29.2081 0.0598081 0.137039 8.72027 -3.72855 -46.8283 24.234 0.0496219 0.113701 3.59489 -12.0066 0.0870068 -1.23299 -7.60729 7.53365 -6.72448 3.72133 6.16571 -12.9547 3.2495 -3.26872 53.8691 50.7897 49.8314 -29.2081 0.0598081 0.137039 -7.55972 -2.65707 39.2785 -24.234 0.0496218 0.113702 -0.228833 -46.4241 2.22653 9.23673 -4.20556 2.0327 13.253 -34.16 -0.962157 -0.852353 -38.7721 -0.655187 -6.64674 23.6693 0.974195 -2.32622 -40.4017 -6.04875 -6.55012 1.09335 17.3379 0.779096 -9.8844 12.4959 2.44036e-15 -6.955e-16 -8.72144e-17 -9.23673 -4.20556 2.0327 6.103 -35.4007 31.2194 0.852353 -38.7721 -0.655187 5.95367 21.4165 -0.747928 2.32622 -40.4017 -6.04875 4.55803 3.40193 -16.5462 -0.779096 -9.8844 12.4959 1.98785e-16 -5.96354e-16 -1.27719e-14 
